<?xml version="1.0" standalone="no"?>
<!DOCTYPE svg PUBLIC "-//W3C//DTD SVG 20010904//EN"
 "http://www.w3.org/TR/2001/REC-SVG-20010904/DTD/svg10.dtd">
<svg version="1.0" xmlns="http://www.w3.org/2000/svg"
 width="1024.000000pt" height="1024.000000pt" viewBox="0 0 1024.000000 1024.000000"
 preserveAspectRatio="xMidYMid meet">

<g transform="translate(0.000000,1024.000000) scale(0.100000,-0.100000)"
fill="#000000" stroke="none">
<path d="M5047 8531 c-32 -21 -56 -55 -112 -156 -70 -129 -430 -755 -720
-1255 -158 -272 -407 -702 -553 -955 -247 -428 -679 -1174 -1020 -1760 -132
-227 -146 -255 -150 -305 -2 -43 2 -62 18 -88 40 -64 11 -62 862 -62 479 0
798 4 838 10 266 42 449 188 557 444 14 33 38 111 53 171 l28 110 271 3 271 2
6 -27 c88 -398 243 -592 546 -685 73 -22 76 -22 888 -25 781 -3 816 -3 850 15
47 26 71 61 77 113 6 56 14 40 -317 604 -343 586 -485 830 -1310 2255 -264
456 -716 1240 -839 1455 -60 104 -67 115 -101 138 -33 23 -107 22 -143 -2z
m132 -1069 c104 -109 293 -396 396 -600 141 -282 165 -404 174 -854 l6 -327
163 -205 162 -205 0 -324 c0 -310 -1 -325 -20 -350 -11 -14 -34 -28 -51 -32
-68 -15 -90 -2 -247 151 l-150 145 -493 -1 -493 0 -146 -144 c-119 -117 -154
-146 -184 -151 -47 -9 -82 0 -112 30 l-24 24 0 326 0 325 163 205 162 206 6
332 c8 457 24 536 170 832 85 174 165 307 292 484 97 136 138 181 163 181 10
0 38 -22 63 -48z"/>
<path d="M5022 6639 c-92 -46 -150 -156 -139 -269 24 -263 360 -318 461 -76
25 59 21 160 -8 221 -60 126 -198 181 -314 124z"/>
</g>
</svg>
