<?xml version="1.0" standalone="no"?>
<!DOCTYPE svg PUBLIC "-//W3C//DTD SVG 20010904//EN"
 "http://www.w3.org/TR/2001/REC-SVG-20010904/DTD/svg10.dtd">
<svg version="1.0" xmlns="http://www.w3.org/2000/svg"
 width="1024.000000pt" height="1024.000000pt" viewBox="0 0 1024.000000 1024.000000"
 preserveAspectRatio="xMidYMid meet">

<g transform="translate(0.000000,1024.000000) scale(0.100000,-0.100000)"
fill="#000000" stroke="none">
<path d="M5064 8476 c-17 -8 -43 -29 -57 -47 -36 -48 -753 -1263 -1462 -2479
-95 -162 -226 -387 -292 -500 -66 -113 -207 -353 -313 -535 -106 -181 -276
-472 -378 -645 -163 -275 -186 -321 -190 -365 -5 -59 22 -106 78 -139 35 -21
45 -21 915 -21 809 0 885 1 945 18 263 71 420 252 515 598 15 52 28 100 30
107 3 9 66 12 269 12 l265 0 11 -57 c74 -380 244 -593 527 -660 72 -17 142
-18 948 -18 l870 0 44 25 c56 32 84 80 78 136 -4 39 -90 193 -397 709 -43 72
-148 252 -235 400 -87 149 -186 317 -220 375 -135 228 -755 1286 -1418 2420
-181 311 -343 584 -359 607 -47 69 -106 89 -174 59z m143 -1084 c294 -341 487
-710 565 -1078 21 -102 23 -132 23 -484 l0 -375 163 -195 c89 -107 171 -213
182 -236 19 -38 20 -62 20 -357 0 -304 -1 -318 -20 -337 -11 -11 -28 -20 -39
-20 -21 0 -299 261 -417 391 l-77 86 -26 -76 -27 -76 -427 -3 -428 -2 -36 79
-35 79 -58 -67 c-68 -78 -281 -287 -361 -354 -62 -52 -90 -58 -113 -25 -14 19
-16 68 -16 328 0 168 4 320 9 337 11 38 60 103 229 306 l124 148 -7 262 c-10
386 10 563 96 824 89 269 282 590 506 841 83 93 94 93 170 4z"/>
<path d="M5005 6508 c-58 -30 -94 -66 -121 -123 -49 -104 -23 -240 61 -314 53
-46 94 -61 166 -61 81 0 130 16 179 58 141 120 110 362 -54 438 -68 32 -173
33 -231 2z"/>
<path d="M7945 3207 c-74 -20 -129 -51 -169 -99 -45 -52 -59 -102 -54 -194 3
-58 9 -80 33 -119 35 -57 114 -105 203 -124 204 -44 234 -54 268 -83 29 -25
34 -37 34 -73 0 -82 -59 -125 -169 -125 -115 0 -171 35 -191 121 l-12 49 -98
0 -99 0 5 -37 c12 -93 28 -128 79 -179 139 -139 458 -149 603 -19 67 61 92
114 92 196 -1 107 -49 188 -140 234 -59 29 -98 41 -226 71 -122 27 -150 42
-170 90 -35 85 30 154 146 154 88 0 153 -44 167 -112 l6 -28 95 0 95 0 -7 47
c-13 94 -83 175 -186 214 -69 26 -232 35 -305 16z"/>
<path d="M1850 3120 l0 -90 150 0 150 0 0 -390 0 -390 100 0 100 0 0 390 0
390 155 0 155 0 0 90 0 90 -405 0 -405 0 0 -90z"/>
<path d="M2775 3193 c6 -16 160 -443 288 -800 l51 -143 130 0 131 0 164 468
c90 257 166 473 169 480 3 9 -21 12 -101 12 l-105 0 -32 -92 c-17 -51 -75
-224 -129 -384 l-98 -292 -123 367 c-68 201 -127 374 -132 384 -7 15 -24 17
-114 17 -97 0 -106 -1 -99 -17z"/>
<path d="M3982 3183 c-26 -76 -132 -369 -226 -632 -58 -162 -106 -296 -106
-298 0 -2 46 -3 103 -3 l102 0 35 100 35 100 195 0 196 0 34 -100 35 -100 108
0 c59 0 107 1 107 3 0 1 -57 155 -126 342 -69 187 -148 402 -176 478 l-51 137
-127 0 -128 0 -10 -27z m216 -398 l59 -170 -135 -3 c-74 -1 -136 -1 -138 1 -2
2 27 92 64 200 78 229 60 233 150 -28z"/>
<path d="M5050 2730 l0 -480 325 0 325 0 0 80 0 80 -225 0 -225 0 0 400 0 400
-100 0 -100 0 0 -480z"/>
<path d="M6100 3153 c-12 -32 -39 -107 -60 -168 -45 -130 -245 -692 -255 -718
-7 -16 0 -18 95 -15 l103 3 35 98 35 97 192 0 192 0 35 -97 34 -98 107 -3 c59
-1 107 -1 107 2 0 4 -94 259 -267 724 l-87 232 -122 0 -123 0 -21 -57z m150
-157 c0 -8 29 -96 65 -197 36 -100 65 -184 65 -186 0 -2 -63 -3 -141 -3 -109
0 -140 3 -136 13 3 6 34 96 69 200 56 167 78 216 78 173z"/>
<path d="M6840 2730 l0 -480 245 0 c138 0 266 5 295 11 68 15 138 64 175 123
28 45 30 57 30 140 0 115 -19 158 -92 201 l-49 30 30 16 c76 39 110 190 65
289 -26 58 -44 77 -100 106 -69 35 -151 44 -386 44 l-213 0 0 -480z m454 306
c44 -18 66 -52 66 -101 0 -88 -50 -115 -210 -115 l-110 0 0 115 0 115 110 0
c72 0 122 -5 144 -14z m17 -386 c20 -6 44 -19 54 -30 26 -28 32 -113 11 -145
-33 -51 -60 -60 -203 -65 l-133 -5 0 128 0 127 118 0 c64 0 133 -5 153 -10z"/>
</g>
</svg>
